# xmcd
# 
# Track frame offsets:
#     150
#     17700
#     35475
#     52650
#     70050
#     70350
#     82275
#     95475
#     166275
# 
# Disc length: 2453
# 
# Revision: 0
# Processed by: cddbd v1.5.2PL0 Copyright (c) Steve Scherf et al.
# Submitted via: fre:ac v1.0.17
# 
DISCID=72099309
DTITLE=Kenny Rogers - The Gift
DYEAR=1996
DGENRE=Country
TTITLE0=Mary, Did You Know?
TTITLE1=A Soldier's King
TTITLE2=Pretty Little Baby Child
TTITLE3=What A Wonderful Beginning
TTITLE4=It's The Messiah
TTITLE5=I Trust You
TTITLE6=Sweet Little Jesus Boy
TTITLE7=The Chosen One Montage (Medley)
TTITLE8='Til The Season Comes 'Round Again
EXTD=
EXTT0=
EXTT1=
EXTT2=
EXTT3=
EXTT4=
EXTT5=
EXTT6=
EXTT7=
EXTT8=
PLAYORDER=
